<?xml version="1.0" encoding="UTF-8"?><svg id="Layer_1" xmlns="http://www.w3.org/2000/svg" viewBox="0 0 248.47 192"><defs><style>.cls-1{fill:#300a09;}</style></defs><path class="cls-1" d="M196.66,33.09c1.36,2.73,2.15,5.47,2.38,8.22.23,2.76-.08,5.38-.93,7.88-.85,2.49-2.17,4.69-3.95,6.58l-4.14,4.39c-1.67,1.78-3.62,3.31-5.84,4.32-2.64,1.2-5.47,1.76-8.49,1.69-.04,0-.07,0-.11,0-8.2-.26-16.15,2.86-21.77,8.82l-48.82,51.79c-5.5,5.83-8.26,13.73-7.58,21.72.02.21.03.4.05.57.23,2.76-.08,5.38-.93,7.88-.85,2.49-2.17,4.69-3.95,6.58l-4.13,4.39c-1.68,1.78-3.63,3.32-5.85,4.33-2.64,1.2-5.47,1.76-8.48,1.68-2.71-.07-5.46-.7-8.26-1.9-2.8-1.19-5.51-3.03-8.14-5.51-2.63-2.48-4.62-5.08-5.98-7.81-1.36-2.72-2.15-5.44-2.38-8.13-.25-2.99.14-5.84,1.17-8.54.87-2.27,2.27-4.3,3.94-6.07l4.27-4.52c1.85-1.96,3.99-3.4,6.43-4.34,2.44-.93,5.03-1.35,7.77-1.25.21,0,.44.02.68.03,8.14.33,16.03-2.9,21.62-8.83l48.26-51.19c5.6-5.94,8.44-14.02,7.54-22.14-.04-.32-.07-.62-.09-.89-.25-3,.14-5.84,1.18-8.55.87-2.27,2.27-4.3,3.94-6.06l4.27-4.53c1.84-1.96,3.99-3.4,6.43-4.34,2.44-.93,5.03-1.35,7.77-1.25,2.74.1,5.51.75,8.31,1.94,2.8,1.2,5.45,2.98,7.96,5.34,2.57,2.42,4.53,5,5.89,7.72Z"/><path class="cls-1" d="M219.65,105.52c-1.05,2.86-2.5,5.32-4.35,7.37-1.85,2.06-3.97,3.64-6.37,4.73-2.4,1.09-4.9,1.64-7.5,1.64h-6.03c-2.44,0-4.89-.36-7.15-1.29-2.69-1.1-5.04-2.77-7.05-5.02-.02-.03-.05-.06-.07-.08-5.44-6.14-13.16-9.79-21.36-9.79h-71.17c-8.02,0-15.66,3.41-21,9.38-.14.16-.27.3-.38.43-1.85,2.06-3.97,3.64-6.37,4.73-2.4,1.09-4.9,1.64-7.5,1.64h-6.03c-2.44,0-4.9-.36-7.16-1.29-2.69-1.1-5.03-2.77-7.04-5.02-1.81-2.02-3.24-4.45-4.29-7.31-1.05-2.86-1.58-6.09-1.58-9.71,0-3.61.52-6.85,1.58-9.71,1.05-2.86,2.48-5.29,4.29-7.31,2-2.24,4.34-3.91,7.02-5.01,2.25-.93,4.69-1.3,7.12-1.3h6.22c2.69,0,5.21.57,7.57,1.7,2.35,1.13,4.43,2.73,6.24,4.79.14.16.29.33.45.51,5.34,6.15,13.11,9.68,21.26,9.68h70.35c8.16,0,16-3.48,21.28-9.7.21-.25.41-.47.59-.68,2-2.24,4.35-3.91,7.03-5.01,2.25-.92,4.68-1.29,7.11-1.29h6.22c2.69,0,5.21.57,7.56,1.7,2.35,1.13,4.43,2.73,6.24,4.79,1.81,2.06,3.23,4.52,4.29,7.37,1.05,2.86,1.58,6.01,1.58,9.46,0,3.53-.53,6.73-1.58,9.58Z"/><path class="cls-1" d="M183.23,171.54c-2.79,1.21-5.57,1.86-8.34,1.95-2.77.09-5.37-.36-7.82-1.34-2.45-.98-4.57-2.41-6.37-4.29l-4.17-4.36c-1.69-1.76-3.12-3.79-4.01-6.06-1.06-2.7-1.48-5.56-1.24-8.56,0-.04,0-.07,0-.11.69-8.17-2.01-16.27-7.68-22.2l-49.17-51.46c-5.54-5.79-13.28-8.96-21.29-8.7-.21,0-.4.01-.57.02-2.77.09-5.37-.36-7.82-1.34-2.45-.98-4.57-2.41-6.37-4.29l-4.16-4.36c-1.69-1.77-3.12-3.79-4.02-6.07-1.06-2.7-1.47-5.55-1.24-8.56.21-2.7.98-5.42,2.32-8.15,1.34-2.73,3.32-5.35,5.93-7.85s5.31-4.35,8.11-5.57c2.79-1.21,5.54-1.87,8.25-1.95,3-.1,5.83.44,8.47,1.62,2.22.99,4.18,2.49,5.86,4.25l4.3,4.5c1.86,1.95,3.19,4.16,4,6.65.8,2.48,1.09,5.09.85,7.82-.02.21-.04.44-.06.68-.75,8.11,2.06,16.16,7.69,22.05l48.61,50.86c5.64,5.9,13.57,9.16,21.71,8.68.32-.02.62-.03.9-.04,3-.1,5.83.44,8.48,1.62,2.22.98,4.17,2.49,5.85,4.25l4.3,4.5c1.86,1.94,3.19,4.16,4,6.64s1.09,5.09.85,7.82c-.24,2.73-1.03,5.46-2.37,8.19-1.34,2.73-3.26,5.29-5.75,7.67-2.55,2.44-5.23,4.27-8.02,5.48Z"/></svg>