<?xml version="1.0" encoding="UTF-8"?><svg id="Layer_1" xmlns="http://www.w3.org/2000/svg" viewBox="0 0 646.02 192"><defs><style>.cls-1{fill:#300a09;}</style></defs><path class="cls-1" d="M28.74,154.77V37.77h34.1l25.07,70.2c.78,1.78,1.84,2.68,3.18,2.68s2.4-.89,3.18-2.68l25.24-70.2h33.93v117h-27.91l.17-55.82c0-1.9-.65-2.95-1.92-3.18-1.28-.22-2.2.56-2.76,2.34l-19.56,56.66h-20.56l-19.72-56.66c-.44-1.67-1.34-2.43-2.67-2.26-1.34.17-2.01,1.2-2.01,3.1l.17,55.82h-27.91Z"/><path class="cls-1" d="M372.39,64.63c-4.51-9.1-10.69-16.25-18.54-21.46-7.85-5.21-16.76-7.82-26.7-7.82h-9.33c-7.31,0-14.15,1.48-20.52,4.43-4.03,1.87-7.79,4.36-11.17,7.31-5.89,5.12-14.66,5.54-20.44.29-2.64-2.4-5.41-4.47-8.04-5.87-6.77-3.62-14.08-6.16-24.02-6.16h-9.33c-7.31,0-14.15,1.48-20.53,4.43-6.38,2.95-11.89,7.15-16.56,12.6-4.67,5.44-8.32,11.9-10.96,19.36-2.65,7.46-3.96,15.55-3.96,24.25,0,11.66,2.25,22.08,6.76,31.25,4.51,9.18,10.73,16.37,18.66,21.58,7.93,5.21,16.87,7.81,26.82,7.81h9.33c7.46,0,14.35-1.48,20.64-4.43,4-1.88,7.66-4.29,10.94-7.13,5.81-5.03,14.43-5.58,20.2-.5,1.75,1.54,3.61,2.96,5.58,4.26,7.93,5.21,16.87,7.81,26.82,7.81h9.33c7.46,0,14.35-1.48,20.64-4.43,6.3-2.95,11.78-7.15,16.44-12.6,4.67-5.44,8.28-11.85,10.85-19.24s3.85-15.51,3.85-24.37c0-11.81-2.25-22.27-6.76-31.37ZM345.39,112.54c-1.65,5-5.15,9.01-8.05,11.98-3.61,3.69-10.64,4.79-16.42,4.49-7.06-.37-12.63-5.25-17.17-10.62-4.92-5.82-15.35-9.13-22.9-9.13,0,0-9.27,0-9.27,0-5.5,0-15.59,1.15-20.31,4.28-5,3.31-8.05,8.87-13,12.32-6.76,4.72-18.05,4.68-24.03-1.32-2.98-2.99-6.54-6.94-8.19-11.87-1.66-4.91-2.48-10.45-2.48-16.61s.83-11.73,2.48-16.74c1.65-5.01,5.21-8.96,8.19-11.87,4.72-4.6,11.31-4.97,17.36-4.19,6.3.81,10.82,5.33,14.98,10.09,4.97,5.69,15.58,9.5,23.1,9.5h12.57c6.68,0,16.74-3.37,21.67-7.89,3.26-2.99,6.09-6.54,9.7-9.08,6.63-4.64,16.67-3.81,23.7,1.82,3.29,2.64,6.41,7.08,8.06,11.99,1.65,4.92,2.48,10.37,2.48,16.35s-.83,11.47-2.48,16.48Z"/><path class="cls-1" d="M428.14,154.77l-41.51-117.55h30.79l22.86,69.27c.78,2.33,1.98,3.5,3.61,3.5s2.84-1.17,3.62-3.5l22.16-69.27h30.79l-41.52,117.55h-30.79Z"/><path class="cls-1" d="M544.98,102.76c-2.18,0-3.81.58-4.9,1.75-1.09,1.17-1.4,2.76-.93,4.78.62,3.42,1.83,6.88,3.61,10.38,1.79,3.5,4.12,6.33,7,8.51,2.87,2.18,6.33,3.26,10.38,3.26h8.4c3.26,0,6.26-.74,8.98-2.22,2.72-1.47,4.93-3.45,6.65-5.94,1.71-2.49,2.88-5.21,3.5-8.17h28.69c-.78,8.09-3.46,15.28-8.05,21.57-4.59,6.3-10.38,11.2-17.37,14.69-7,3.5-14.54,5.25-22.62,5.25h-8.4c-9.95,0-18.85-2.6-26.7-7.81-7.85-5.21-14.03-12.4-18.54-21.58-4.51-9.17-6.76-19.67-6.76-31.48,0-9.48,1.43-17.92,4.32-25.3,2.87-7.39,6.76-13.72,11.66-19.01,4.9-5.28,10.42-9.29,16.56-12.01,6.14-2.72,12.48-4.08,19.01-4.08h8.63c9.48,0,17.96,2.53,25.42,7.58,7.46,5.05,13.29,11.89,17.49,20.52,4.2,8.63,6.3,18.23,6.3,28.8,0,2.49-.08,4.51-.24,6.07-.16,1.56-.23,3.03-.23,4.43h-71.84ZM542.19,73.38c-.93,2.33-.97,4.24-.12,5.71.85,1.48,2.68,2.22,5.48,2.22h32.42c2.49,0,4.27-.7,5.36-2.1,1.09-1.4,1.17-3.26.24-5.6-.78-2.95-2.02-5.52-3.73-7.69-1.72-2.18-3.77-3.93-6.18-5.25-2.41-1.32-4.86-1.99-7.35-1.99h-8.16c-3.58,0-7,1.28-10.26,3.85-3.26,2.57-5.83,6.18-7.69,10.85Z"/></svg>